<?xml version="1.0" encoding="UTF-8"?>
<!DOCTYPE svg PUBLIC "-//W3C//DTD SVG 1.1//EN" "http://www.w3.org/Graphics/SVG/1.1/DTD/svg11.dtd">
<svg xmlns="http://www.w3.org/2000/svg" version="1.1" width="310px" height="271px" style="shape-rendering:geometricPrecision; text-rendering:geometricPrecision; image-rendering:optimizeQuality; fill-rule:evenodd; clip-rule:evenodd" xmlns:xlink="http://www.w3.org/1999/xlink">
<g><path style="opacity:0.004" fill="#fefffe" d="M 306.5,-0.5 C 306.833,-0.5 307.167,-0.5 307.5,-0.5C 307.315,0.170143 306.981,0.170143 306.5,-0.5 Z"/></g>
<g><path style="opacity:0.004" fill="#fefffe" d="M 73.5,0.5 C 74.8333,1.16667 74.8333,1.16667 73.5,0.5 Z"/></g>
<g><path style="opacity:0.004" fill="#fefffe" d="M 282.5,5.5 C 283.833,6.16667 283.833,6.16667 282.5,5.5 Z"/></g>
<g><path style="opacity:0.004" fill="#fefffe" d="M 136.5,10.5 C 137.833,11.1667 137.833,11.1667 136.5,10.5 Z"/></g>
<g><path style="opacity:0.004" fill="#fefffe" d="M 231.5,16.5 C 232.833,17.1667 232.833,17.1667 231.5,16.5 Z"/></g>
<g><path style="opacity:0.004" fill="#fefffe" d="M 246.5,18.5 C 247.833,19.1667 247.833,19.1667 246.5,18.5 Z"/></g>
<g><path style="opacity:0.09" fill="#1caab7" d="M 230.5,25.5 C 206.339,26.4976 182.006,26.831 157.5,26.5C 155.05,26.298 152.717,26.6314 150.5,27.5C 176.812,25.5088 203.479,24.8421 230.5,25.5 Z"/></g>
<g><path style="opacity:0.88" fill="#3dcad0" d="M 230.5,25.5 C 240.412,25.9151 249.412,28.9151 257.5,34.5C 257.44,35.0431 257.107,35.3764 256.5,35.5C 251.155,32.5767 245.488,30.41 239.5,29C 212.169,28.5 184.835,28.3334 157.5,28.5C 157.5,27.8333 157.5,27.1667 157.5,26.5C 182.006,26.831 206.339,26.4976 230.5,25.5 Z"/></g>
<g><path style="opacity:1" fill="#343233" d="M 135.5,28.5 C 136.833,28.5 137.5,29.1667 137.5,30.5C 136.507,65.427 136.174,100.427 136.5,135.5C 136.494,140.215 135.994,144.882 135,149.5C 132.631,156.998 129.964,164.331 127,171.5C 122.952,175.71 119.119,180.044 115.5,184.5C 111.005,187.499 107.005,190.999 103.5,195C 97.4527,198.355 91.1194,201.188 84.5,203.5C 63.3583,208.346 43.3583,205.68 24.5,195.5C 19.2814,192.954 14.9481,189.287 11.5,184.5C 19.1667,177.833 26.8333,171.167 34.5,164.5C 36.2303,165.026 37.5637,166.026 38.5,167.5C 44.6222,173.21 51.9555,176.21 60.5,176.5C 67.0685,177.637 73.7352,177.304 80.5,175.5C 80.8627,174.817 81.1961,174.15 81.5,173.5C 92.5944,167.9 100.428,159.233 105,147.5C 105.49,146.207 105.657,144.873 105.5,143.5C 105.833,143.5 106.167,143.5 106.5,143.5C 108.494,106.181 109.161,68.5148 108.5,30.5C 117.895,31.1377 126.895,30.4711 135.5,28.5 Z"/></g>
<g><path style="opacity:1" fill="#333333" d="M 263.5,39.5 C 268.208,43.2066 272.208,47.5399 275.5,52.5C 276.98,57.6061 278.646,62.6061 280.5,67.5C 280.666,75.5069 280.5,83.5069 280,91.5C 279.342,94.2848 278.509,96.9514 277.5,99.5C 275.963,103.443 274.63,107.443 273.5,111.5C 274.5,111.5 275.5,111.5 276.5,111.5C 279.167,114.5 281.833,117.5 284.5,120.5C 287.241,125.205 289.241,130.205 290.5,135.5C 288.854,139.568 289.52,143.235 292.5,146.5C 293.492,150.783 293.826,155.116 293.5,159.5C 293.793,162.754 293.126,165.754 291.5,168.5C 290.088,170.604 289.088,172.937 288.5,175.5C 282.304,185.196 274.304,193.029 264.5,199C 259.527,200.573 254.527,201.74 249.5,202.5C 231.992,202.17 214.659,202.503 197.5,203.5C 196.127,203.657 194.793,203.49 193.5,203C 194.056,202.617 194.389,202.117 194.5,201.5C 198.225,192.382 202.225,183.382 206.5,174.5C 221.515,174.833 236.515,174.499 251.5,173.5C 255.78,172.217 258.78,169.55 260.5,165.5C 264.687,158.274 265.521,150.607 263,142.5C 262.34,140.676 261.173,139.343 259.5,138.5C 258.128,137.488 256.795,136.488 255.5,135.5C 254.172,133.281 252.172,131.948 249.5,131.5C 248.737,130.732 247.737,130.232 246.5,130C 235.833,129.833 225.167,129.667 214.5,129.5C 203.478,129.501 192.812,130.168 182.5,131.5C 181.502,154.661 181.169,177.994 181.5,201.5C 172.651,201.174 163.984,201.507 155.5,202.5C 155.5,202.833 155.5,203.167 155.5,203.5C 153.821,203.715 152.821,203.048 152.5,201.5C 153.167,201.5 153.5,201.167 153.5,200.5C 154.499,144.002 154.832,87.3358 154.5,30.5C 183.169,30.3334 211.835,30.5 240.5,31C 242.623,32.1937 244.957,32.8603 247.5,33C 245.355,33.7431 245.189,34.5765 247,35.5C 248,34.8333 249,34.1667 250,33.5C 253.037,35.5167 256.204,37.35 259.5,39C 260.793,39.49 262.127,39.6567 263.5,39.5 Z M 241.5,63.5 C 243.853,64.3403 245.853,65.6736 247.5,67.5C 252.704,86.6397 245.37,96.9731 225.5,98.5C 213.549,98.4719 201.549,98.3053 189.5,98C 188.473,97.4867 187.473,96.9867 186.5,96.5C 186.5,96.1667 186.5,95.8333 186.5,95.5C 185.639,84.7979 185.306,73.4645 185.5,61.5C 202.679,61.5345 219.679,61.5345 236.5,61.5C 238.195,62.1744 239.862,62.8411 241.5,63.5 Z"/></g>
<g><path style="opacity:0.004" fill="#fefffe" d="M 306.5,33.5 C 307.833,34.1667 307.833,34.1667 306.5,33.5 Z"/></g>
<g><path style="opacity:0.004" fill="#fefffe" d="M 50.5,35.5 C 51.8333,36.1667 51.8333,36.1667 50.5,35.5 Z"/></g>
<g><path style="opacity:1" fill="#8d2d43" d="M 137.5,30.5 C 138.833,30.5 139.5,31.1667 139.5,32.5C 137.586,35.6843 136.92,39.351 137.5,43.5C 137.831,74.3379 137.498,105.005 136.5,135.5C 136.174,100.427 136.507,65.427 137.5,30.5 Z"/></g>
<g><path style="opacity:0.989" fill="#63f6f3" d="M 157.5,26.5 C 157.5,27.1667 157.5,27.8333 157.5,28.5C 156.167,28.5 154.833,28.5 153.5,28.5C 152.833,85.8333 152.167,143.167 151.5,200.5C 150.82,192.098 150.154,183.598 149.5,175C 149.178,126.656 149.511,77.4896 150.5,27.5C 152.717,26.6314 155.05,26.298 157.5,26.5 Z"/></g>
<g><path style="opacity:1" fill="#164847" d="M 153.5,28.5 C 154.833,28.5 156.167,28.5 157.5,28.5C 184.835,28.3334 212.169,28.5 239.5,29C 245.488,30.41 251.155,32.5767 256.5,35.5C 257.107,35.3764 257.44,35.0431 257.5,34.5C 259.909,35.7007 261.909,37.3674 263.5,39.5C 262.127,39.6567 260.793,39.49 259.5,39C 256.204,37.35 253.037,35.5167 250,33.5C 249,34.1667 248,34.8333 247,35.5C 245.189,34.5765 245.355,33.7431 247.5,33C 244.957,32.8603 242.623,32.1937 240.5,31C 211.835,30.5 183.169,30.3334 154.5,30.5C 154.832,87.3358 154.499,144.002 153.5,200.5C 153.5,143.167 153.5,85.8333 153.5,28.5 Z"/></g>
<g><path style="opacity:1" fill="#e92349" d="M 139.5,32.5 C 140.088,67.8728 140.088,101.873 139.5,134.5C 138.833,104.167 138.167,73.8333 137.5,43.5C 136.92,39.351 137.586,35.6843 139.5,32.5 Z"/></g>
<g><path style="opacity:0.004" fill="#fefffe" d="M 304.5,55.5 C 305.833,56.1667 305.833,56.1667 304.5,55.5 Z"/></g>
<g><path style="opacity:0.004" fill="#fefffe" d="M 58.5,56.5 C 59.8333,57.1667 59.8333,57.1667 58.5,56.5 Z"/></g>
<g><path style="opacity:1" fill="#8d2c41" d="M 232.5,59.5 C 216.167,59.5 199.833,59.5 183.5,59.5C 191.305,58.1688 199.472,57.5021 208,57.5C 216.528,57.5021 224.695,58.1688 232.5,59.5 Z"/></g>
<g><path style="opacity:1" fill="#dd3359" d="M 183.5,59.5 C 199.833,59.5 216.167,59.5 232.5,59.5C 236.219,59.0025 239.553,59.8358 242.5,62C 241.944,62.3826 241.611,62.8826 241.5,63.5C 239.862,62.8411 238.195,62.1744 236.5,61.5C 219.679,61.5345 202.679,61.5345 185.5,61.5C 185.306,73.4645 185.639,84.7979 186.5,95.5C 185.85,95.8039 185.183,96.1373 184.5,96.5C 183.501,84.1847 183.168,71.8513 183.5,59.5 Z"/></g>
<g><path style="opacity:0.004" fill="#fefffe" d="M 57.5,63.5 C 58.8333,64.1667 58.8333,64.1667 57.5,63.5 Z"/></g>
<g><path style="opacity:1" fill="#8e2e44" d="M 183.5,59.5 C 183.168,71.8513 183.501,84.1847 184.5,96.5C 185.183,96.1373 185.85,95.8039 186.5,95.5C 186.5,95.8333 186.5,96.1667 186.5,96.5C 186.5,97.1667 186.167,97.5 185.5,97.5C 184.5,97.5 183.5,97.5 182.5,97.5C 182.171,84.6557 182.505,71.989 183.5,59.5 Z"/></g>
<g><path style="opacity:1" fill="#38c2b9" d="M 153.5,28.5 C 153.5,85.8333 153.5,143.167 153.5,200.5C 153.5,201.167 153.167,201.5 152.5,201.5C 151.833,201.5 151.5,201.167 151.5,200.5C 152.167,143.167 152.833,85.8333 153.5,28.5 Z"/></g>
<g><path style="opacity:0.612" fill="#b03f55" d="M 275.5,52.5 C 281.216,58.6315 284.216,65.9649 284.5,74.5C 283.833,78.1667 283.167,81.8333 282.5,85.5C 282.666,80.8215 282.499,76.1548 282,71.5C 281.79,69.9419 281.29,68.6085 280.5,67.5C 278.646,62.6061 276.98,57.6061 275.5,52.5 Z"/></g>
<g><path style="opacity:1" fill="#38c0bc" d="M 107.5,28.5 C 107.809,66.8573 107.476,105.191 106.5,143.5C 106.167,143.5 105.833,143.5 105.5,143.5C 106.136,105.016 106.803,66.6828 107.5,28.5 Z"/></g>
<g><path style="opacity:0.004" fill="#fefffe" d="M 8.5,72.5 C 9.83333,73.1667 9.83333,73.1667 8.5,72.5 Z"/></g>
<g><path style="opacity:0.004" fill="#fefffe" d="M 70.5,72.5 C 71.8333,73.1667 71.8333,73.1667 70.5,72.5 Z"/></g>
<g><path style="opacity:1" fill="#5e2531" d="M 280.5,67.5 C 281.29,68.6085 281.79,69.9419 282,71.5C 282.499,76.1548 282.666,80.8215 282.5,85.5C 281.863,88.456 281.363,91.456 281,94.5C 280.303,96.5844 279.136,98.2511 277.5,99.5C 278.509,96.9514 279.342,94.2848 280,91.5C 280.5,83.5069 280.666,75.5069 280.5,67.5 Z"/></g>
<g><path style="opacity:0.004" fill="#fefffe" d="M 73.5,87.5 C 74.8333,88.1667 74.8333,88.1667 73.5,87.5 Z"/></g>
<g><path style="opacity:1" fill="#db2d53" d="M 284.5,74.5 C 286.953,87.9002 284.286,100.234 276.5,111.5C 275.5,111.5 274.5,111.5 273.5,111.5C 274.63,107.443 275.963,103.443 277.5,99.5C 279.136,98.2511 280.303,96.5844 281,94.5C 281.363,91.456 281.863,88.456 282.5,85.5C 283.167,81.8333 283.833,78.1667 284.5,74.5 Z"/></g>
<g><path style="opacity:0.004" fill="#fefffe" d="M 299.5,90.5 C 300.833,91.1667 300.833,91.1667 299.5,90.5 Z"/></g>
<g><path style="opacity:1" fill="#48e6e1" d="M 233.5,100.5 C 216.466,101.152 199.8,100.485 183.5,98.5C 184.492,98.6716 185.158,98.3382 185.5,97.5C 186.167,97.5 186.5,97.1667 186.5,96.5C 187.473,96.9867 188.473,97.4867 189.5,98C 201.549,98.3053 213.549,98.4719 225.5,98.5C 245.37,96.9731 252.704,86.6397 247.5,67.5C 247.435,67.0618 247.601,66.7284 248,66.5C 253.651,74.8314 253.984,83.4981 249,92.5C 244.991,97.421 239.825,100.088 233.5,100.5 Z"/></g>
<g><path style="opacity:0.004" fill="#fefffe" d="M 85.5,94.5 C 86.8333,95.1667 86.8333,95.1667 85.5,94.5 Z"/></g>
<g><path style="opacity:1" fill="#144240" d="M 134.5,27.5 C 135.167,27.5 135.5,27.8333 135.5,28.5C 126.895,30.4711 117.895,31.1377 108.5,30.5C 109.161,68.5148 108.494,106.181 106.5,143.5C 107.476,105.191 107.809,66.8573 107.5,28.5C 116.682,28.8266 125.682,28.4933 134.5,27.5 Z"/></g>
<g><path style="opacity:1" fill="#259991" d="M 183.5,98.5 C 199.8,100.485 216.466,101.152 233.5,100.5C 216.675,101.497 199.675,101.83 182.5,101.5C 182.263,100.209 182.596,99.209 183.5,98.5 Z"/></g>
<g><path style="opacity:0.004" fill="#fefffe" d="M 57.5,102.5 C 58.8333,103.167 58.8333,103.167 57.5,102.5 Z"/></g>
<g><path style="opacity:0.004" fill="#fefffe" d="M 17.5,104.5 C 18.8333,105.167 18.8333,105.167 17.5,104.5 Z"/></g>
<g><path style="opacity:0.004" fill="#fefffe" d="M 285.5,105.5 C 286.833,106.167 286.833,106.167 285.5,105.5 Z"/></g>
<g><path style="opacity:0.004" fill="#fefffe" d="M 284.5,113.5 C 285.833,114.167 285.833,114.167 284.5,113.5 Z"/></g>
<g><path style="opacity:0.004" fill="#fefffe" d="M 85.5,114.5 C 86.8333,115.167 86.8333,115.167 85.5,114.5 Z"/></g>
<g><path style="opacity:0.004" fill="#fefffe" d="M 94.5,116.5 C 95.8333,117.167 95.8333,117.167 94.5,116.5 Z"/></g>
<g><path style="opacity:1" fill="#41ece7" d="M 134.5,27.5 C 125.682,28.4933 116.682,28.8266 107.5,28.5C 106.803,66.6828 106.136,105.016 105.5,143.5C 105.657,144.873 105.49,146.207 105,147.5C 100.428,159.233 92.5944,167.9 81.5,173.5C 74.6222,175.257 67.6222,176.257 60.5,176.5C 51.9555,176.21 44.6222,173.21 38.5,167.5C 59.144,177.385 77.644,174.385 94,158.5C 98.0596,153.047 101.06,147.047 103,140.5C 103.37,130.493 103.87,120.493 104.5,110.5C 104.096,82.4495 104.096,54.1161 104.5,25.5C 114.889,24.859 124.889,25.5257 134.5,27.5 Z"/></g>
<g><path style="opacity:1" fill="#5d202b" d="M 249.5,131.5 C 227.347,130.228 205.347,130.228 183.5,131.5C 183.167,131.5 182.833,131.5 182.5,131.5C 192.812,130.168 203.478,129.501 214.5,129.5C 225.167,129.667 235.833,129.833 246.5,130C 247.737,130.232 248.737,130.732 249.5,131.5 Z"/></g>
<g><path style="opacity:0.004" fill="#fefffe" d="M 56.5,137.5 C 57.8333,138.167 57.8333,138.167 56.5,137.5 Z"/></g>
<g><path style="opacity:1" fill="#512d33" d="M 284.5,120.5 C 286.9,122.296 288.567,124.63 289.5,127.5C 290.686,132.236 292.186,136.902 294,141.5C 294.819,147.681 294.653,153.681 293.5,159.5C 293.826,155.116 293.492,150.783 292.5,146.5C 289.52,143.235 288.854,139.568 290.5,135.5C 289.241,130.205 287.241,125.205 284.5,120.5 Z"/></g>
<g><path style="opacity:0.004" fill="#fefffe" d="M 89.5,150.5 C 90.8333,151.167 90.8333,151.167 89.5,150.5 Z"/></g>
<g><path style="opacity:0.004" fill="#fefffe" d="M 301.5,152.5 C 302.833,153.167 302.833,153.167 301.5,152.5 Z"/></g>
<g><path style="opacity:0.004" fill="#fefffe" d="M 209.5,154.5 C 210.833,155.167 210.833,155.167 209.5,154.5 Z"/></g>
<g><path style="opacity:0.004" fill="#fefffe" d="M 82.5,155.5 C 83.8333,156.167 83.8333,156.167 82.5,155.5 Z"/></g>
<g><path style="opacity:1" fill="#502531" d="M 182.5,131.5 C 182.5,155.167 182.5,178.833 182.5,202.5C 173.5,202.5 164.5,202.5 155.5,202.5C 163.984,201.507 172.651,201.174 181.5,201.5C 181.169,177.994 181.502,154.661 182.5,131.5 Z"/></g>
<g><path style="opacity:0.004" fill="#fefffe" d="M 6.5,159.5 C 7.83333,160.167 7.83333,160.167 6.5,159.5 Z"/></g>
<g><path style="opacity:0.004" fill="#fefffe" d="M 14.5,161.5 C 15.8333,162.167 15.8333,162.167 14.5,161.5 Z"/></g>
<g><path style="opacity:0.004" fill="#fefffe" d="M 71.5,161.5 C 72.8333,162.167 72.8333,162.167 71.5,161.5 Z"/></g>
<g><path style="opacity:1" fill="#43e1dd" d="M 34.5,164.5 C 26.8333,171.167 19.1667,177.833 11.5,184.5C 9.9153,183.998 9.4153,182.998 10,181.5C 17,174.5 24,167.5 31,160.5C 32.3756,161.705 33.5423,163.038 34.5,164.5 Z"/></g>
<g><path style="opacity:1" fill="#d62a52" d="M 137.5,43.5 C 138.167,73.8333 138.833,104.167 139.5,134.5C 139.449,161.738 127.783,183.238 104.5,199C 98.5829,202.628 92.2496,205.128 85.5,206.5C 79.1886,206.853 78.8552,205.853 84.5,203.5C 91.1194,201.188 97.4527,198.355 103.5,195C 107.005,190.999 111.005,187.499 115.5,184.5C 119.119,180.044 122.952,175.71 127,171.5C 129.964,164.331 132.631,156.998 135,149.5C 135.994,144.882 136.494,140.215 136.5,135.5C 137.498,105.005 137.831,74.3379 137.5,43.5 Z"/></g>
<g><path style="opacity:1" fill="#48e4de" d="M 259.5,138.5 C 261.173,139.343 262.34,140.676 263,142.5C 265.521,150.607 264.687,158.274 260.5,165.5C 257.041,169.388 252.708,171.888 247.5,173C 233.661,173.169 219.994,173.669 206.5,174.5C 202.225,183.382 198.225,192.382 194.5,201.5C 193.244,201.539 192.244,201.039 191.5,200C 195.5,190.333 199.5,180.667 203.5,171C 216.833,170.667 230.167,170.333 243.5,170C 260.018,165.467 265.352,154.967 259.5,138.5 Z"/></g>
<g><path style="opacity:1" fill="#792737" d="M 291.5,168.5 C 291.818,171.481 290.818,173.815 288.5,175.5C 289.088,172.937 290.088,170.604 291.5,168.5 Z"/></g>
<g><path style="opacity:1" fill="#17413f" d="M 260.5,165.5 C 258.78,169.55 255.78,172.217 251.5,173.5C 236.515,174.499 221.515,174.833 206.5,174.5C 219.994,173.669 233.661,173.169 247.5,173C 252.708,171.888 257.041,169.388 260.5,165.5 Z"/></g>
<g><path style="opacity:1" fill="#1b4f4b" d="M 81.5,173.5 C 81.1961,174.15 80.8627,174.817 80.5,175.5C 73.7352,177.304 67.0685,177.637 60.5,176.5C 67.6222,176.257 74.6222,175.257 81.5,173.5 Z"/></g>
<g><path style="opacity:0.004" fill="#fefffe" d="M 191.5,178.5 C 192.833,179.167 192.833,179.167 191.5,178.5 Z"/></g>
<g><path style="opacity:0.004" fill="#fefffe" d="M 187.5,187.5 C 188.833,188.167 188.833,188.167 187.5,187.5 Z"/></g>
<g><path style="opacity:1" fill="#d82e56" d="M 249.5,131.5 C 252.172,131.948 254.172,133.281 255.5,135.5C 247.106,133.96 238.606,133.294 230,133.5C 215.501,134.61 201.001,134.776 186.5,134C 185.705,157.731 185.705,181.397 186.5,205C 181.333,205.167 176.167,205.333 171,205.5C 165.454,205.495 160.288,204.828 155.5,203.5C 164.833,203.5 174.167,203.5 183.5,203.5C 183.5,179.5 183.5,155.5 183.5,131.5C 205.347,130.228 227.347,130.228 249.5,131.5 Z"/></g>
<g><path style="opacity:1" fill="#8d2b42" d="M 182.5,131.5 C 182.833,131.5 183.167,131.5 183.5,131.5C 183.5,155.5 183.5,179.5 183.5,203.5C 174.167,203.5 164.833,203.5 155.5,203.5C 155.5,203.167 155.5,202.833 155.5,202.5C 164.5,202.5 173.5,202.5 182.5,202.5C 182.5,178.833 182.5,155.167 182.5,131.5 Z"/></g>
<g><path style="opacity:1" fill="#912d42" d="M 249.5,202.5 C 232.309,202.838 215.309,203.838 198.5,205.5C 196.302,205.591 195.969,204.925 197.5,203.5C 214.659,202.503 231.992,202.17 249.5,202.5 Z"/></g>
<g><path style="opacity:1" fill="#d92d55" d="M 289.5,127.5 C 292.69,131.214 294.857,135.547 296,140.5C 301.805,168.07 291.971,188.57 266.5,202C 262.943,203.408 259.276,204.408 255.5,205C 236.503,205.5 217.503,205.667 198.5,205.5C 215.309,203.838 232.309,202.838 249.5,202.5C 254.527,201.74 259.527,200.573 264.5,199C 274.304,193.029 282.304,185.196 288.5,175.5C 290.818,173.815 291.818,171.481 291.5,168.5C 293.126,165.754 293.793,162.754 293.5,159.5C 294.653,153.681 294.819,147.681 294,141.5C 292.186,136.902 290.686,132.236 289.5,127.5 Z"/></g>
<g><path style="opacity:1" fill="#c03555" d="M 24.5,195.5 C 43.3583,205.68 63.3583,208.346 84.5,203.5C 78.8552,205.853 79.1886,206.853 85.5,206.5C 65.3367,211.562 46.0034,209.062 27.5,199C 26.2899,197.961 25.2899,196.794 24.5,195.5 Z"/></g>
<g><path style="opacity:0.004" fill="#fefffe" d="M 163.5,206.5 C 164.833,207.167 164.833,207.167 163.5,206.5 Z"/></g>
<g><path style="opacity:0.004" fill="#fefffe" d="M 159.5,207.5 C 160.833,208.167 160.833,208.167 159.5,207.5 Z"/></g>
<g><path style="opacity:0.004" fill="#fefffe" d="M 63.5,214.5 C 64.8333,215.167 64.8333,215.167 63.5,214.5 Z"/></g>
<g><path style="opacity:0.004" fill="#fefffe" d="M 286.5,214.5 C 287.833,215.167 287.833,215.167 286.5,214.5 Z"/></g>
<g><path style="opacity:0.004" fill="#fefffe" d="M 87.5,219.5 C 88.8333,220.167 88.8333,220.167 87.5,219.5 Z"/></g>
<g><path style="opacity:0.004" fill="#fefffe" d="M 299.5,221.5 C 300.833,222.167 300.833,222.167 299.5,221.5 Z"/></g>
<g><path style="opacity:0.833" fill="#ededee" d="M 36.5,216.5 C 41.194,216.363 43.3607,218.697 43,223.5C 44.9552,224.453 46.6218,225.787 48,227.5C 50.6057,232.435 53.6057,237.102 57,241.5C 57.9809,244.557 56.9809,246.557 54,247.5C 52.7387,247.241 51.7387,246.574 51,245.5C 47.2791,239.217 43.4457,233.05 39.5,227C 39.8333,226.667 40.1667,226.333 40.5,226C 34.571,224.61 33.2376,221.443 36.5,216.5 Z"/></g>
<g><path style="opacity:0.75" fill="#2e2e2e" d="M 233.5,226.5 C 238.875,226.172 244.208,226.505 249.5,227.5C 247.977,229.283 245.977,229.949 243.5,229.5C 243.5,235.167 243.5,240.833 243.5,246.5C 242.167,246.5 240.833,246.5 239.5,246.5C 239.5,240.833 239.5,235.167 239.5,229.5C 237.5,229.5 235.5,229.5 233.5,229.5C 233.5,228.5 233.5,227.5 233.5,226.5 Z"/></g>
<g><path style="opacity:0.004" fill="#000000" d="M 213.5,228.5 C 214.833,229.167 214.833,229.167 213.5,228.5 Z"/></g>
<g><path style="opacity:0.726" fill="#252525" d="M 200.5,226.5 C 204.5,226.5 208.5,226.5 212.5,226.5C 212.5,227.5 212.5,228.5 212.5,229.5C 209.833,229.5 207.167,229.5 204.5,229.5C 204.5,231.167 204.5,232.833 204.5,234.5C 206.833,234.5 209.167,234.5 211.5,234.5C 211.5,235.5 211.5,236.5 211.5,237.5C 209.167,237.5 206.833,237.5 204.5,237.5C 204.5,239.5 204.5,241.5 204.5,243.5C 207.5,243.5 210.5,243.5 213.5,243.5C 213.5,244.5 213.5,245.5 213.5,246.5C 209.167,246.5 204.833,246.5 200.5,246.5C 200.5,239.833 200.5,233.167 200.5,226.5 Z"/></g>
<g><path style="opacity:0.004" fill="#000000" d="M 205.5,230.5 C 206.833,231.167 206.833,231.167 205.5,230.5 Z"/></g>
<g><path style="opacity:0.963" fill="#303030" d="M 128.5,226.5 C 129.5,226.5 130.5,226.5 131.5,226.5C 131.5,232.167 131.5,237.833 131.5,243.5C 134.5,243.5 137.5,243.5 140.5,243.5C 140.5,244.5 140.5,245.5 140.5,246.5C 136.5,246.5 132.5,246.5 128.5,246.5C 128.5,239.833 128.5,233.167 128.5,226.5 Z"/></g>
<g><path style="opacity:0.654" fill="#2a2a2a" d="M 225.5,235.5 C 225.987,236.473 226.487,237.473 227,238.5C 227.499,234.514 227.666,230.514 227.5,226.5C 228.833,226.5 230.167,226.5 231.5,226.5C 232.016,233.594 232.016,240.261 231.5,246.5C 230.127,246.657 228.793,246.49 227.5,246C 225.363,242.364 223.029,238.864 220.5,235.5C 219.704,238.726 219.37,242.393 219.5,246.5C 218.5,246.5 217.5,246.5 216.5,246.5C 216.5,239.833 216.5,233.167 216.5,226.5C 217.978,226.238 219.311,226.571 220.5,227.5C 221.691,230.568 223.358,233.235 225.5,235.5 Z"/></g>
<g><path style="opacity:0.004" fill="#000000" d="M 225.5,234.5 C 226.833,235.167 226.833,235.167 225.5,234.5 Z"/></g>
<g><path style="opacity:0.004" fill="#fefffe" d="M 250.5,234.5 C 251.833,235.167 251.833,235.167 250.5,234.5 Z"/></g>
<g><path style="opacity:0.936" fill="#262626" d="M 161.5,226.5 C 165.182,226.335 168.848,226.501 172.5,227C 175.287,229.167 176.12,232.001 175,235.5C 174.5,236.667 173.667,237.5 172.5,238C 172.833,238.333 173.167,238.667 173.5,239C 170.668,239.212 168.002,239.379 165.5,239.5C 165.838,241.655 165.838,243.989 165.5,246.5C 164.167,246.5 162.833,246.5 161.5,246.5C 161.5,239.833 161.5,233.167 161.5,226.5 Z M 165.5,229.5 C 167.527,229.338 169.527,229.505 171.5,230C 172.833,231.667 172.833,233.333 171.5,235C 169.564,235.813 167.564,236.313 165.5,236.5C 165.5,234.167 165.5,231.833 165.5,229.5 Z"/></g>
<g><path style="opacity:0.853" fill="#313031" d="M 112.5,226.5 C 116.5,226.5 120.5,226.5 124.5,226.5C 124.5,227.5 124.5,228.5 124.5,229.5C 121.5,229.5 118.5,229.5 115.5,229.5C 115.5,231.167 115.5,232.833 115.5,234.5C 118.167,234.5 120.833,234.5 123.5,234.5C 123.5,235.5 123.5,236.5 123.5,237.5C 120.833,237.5 118.167,237.5 115.5,237.5C 115.5,239.5 115.5,241.5 115.5,243.5C 118.5,243.5 121.5,243.5 124.5,243.5C 124.5,244.5 124.5,245.5 124.5,246.5C 120.5,246.5 116.5,246.5 112.5,246.5C 112.5,239.833 112.5,233.167 112.5,226.5 Z"/></g>
<g><path style="opacity:0.833" fill="#232323" d="M 178.5,226.5 C 180.144,226.286 181.644,226.62 183,227.5C 184.405,231.217 185.905,234.883 187.5,238.5C 189.095,234.883 190.595,231.217 192,227.5C 193.356,226.62 194.856,226.286 196.5,226.5C 196.5,233.167 196.5,239.833 196.5,246.5C 195.167,246.5 193.833,246.5 192.5,246.5C 192.665,242.818 192.499,239.152 192,235.5C 189,247.5 186,247.5 183,235.5C 182.825,239.211 182.325,242.878 181.5,246.5C 180.575,247.641 179.741,247.641 179,246.5C 178.5,239.842 178.334,233.175 178.5,226.5 Z"/></g>
<g><path style="opacity:0.876" fill="#2e2e2e" d="M 62.5,226.5 C 74.6602,224.493 79.4935,229.493 77,241.5C 76.5348,242.931 75.7014,244.097 74.5,245C 70.6372,246.354 66.6372,246.854 62.5,246.5C 62.5,239.833 62.5,233.167 62.5,226.5 Z M 66.5,229.5 C 71.6274,228.958 74.294,231.291 74.5,236.5C 74.294,241.709 71.6274,244.042 66.5,243.5C 66.5,238.833 66.5,234.167 66.5,229.5 Z"/></g>
<g><path style="opacity:0.885" fill="#2c2c2c" d="M 145.5,226.5 C 153.89,224.557 158.224,227.89 158.5,236.5C 157.46,246.557 152.46,249.391 143.5,245C 139.035,238.547 139.702,232.38 145.5,226.5 Z M 147.5,229.5 C 151.789,228.483 154.122,230.15 154.5,234.5C 153.86,236.519 153.86,238.353 154.5,240C 151.479,245.62 148.312,245.787 145,240.5C 143.813,236.217 144.647,232.55 147.5,229.5 Z"/></g>
<g><path style="opacity:1" fill="#2e2e2e" d="M 106.5,227.5 C 107.858,226.374 109.192,226.374 110.5,227.5C 108.769,233.192 106.936,238.859 105,244.5C 103.847,246.497 102.347,246.83 100.5,245.5C 98.2993,239.923 96.6326,234.59 95.5,229.5C 91.8333,229.5 88.1667,229.5 84.5,229.5C 84.5,231.167 84.5,232.833 84.5,234.5C 87.1667,234.5 89.8333,234.5 92.5,234.5C 92.5,235.5 92.5,236.5 92.5,237.5C 89.8333,237.5 87.1667,237.5 84.5,237.5C 84.5,239.5 84.5,241.5 84.5,243.5C 87.5,243.5 90.5,243.5 93.5,243.5C 93.5,244.5 93.5,245.5 93.5,246.5C 89.5,246.5 85.5,246.5 81.5,246.5C 81.5,239.833 81.5,233.167 81.5,226.5C 87.1667,226.5 92.8333,226.5 98.5,226.5C 100.726,244.283 103.393,244.617 106.5,227.5 Z"/></g>
<g><path style="opacity:0.004" fill="#000000" d="M 91.5,238.5 C 92.8333,239.167 92.8333,239.167 91.5,238.5 Z"/></g>
<g><path style="opacity:0.004" fill="#000000" d="M 87.5,238.5 C 88.8333,239.167 88.8333,239.167 87.5,238.5 Z"/></g>
<g><path style="opacity:0.004" fill="#000000" d="M 93.5,230.5 C 94.8333,231.167 94.8333,231.167 93.5,230.5 Z"/></g>
<g><path style="opacity:0.004" fill="#000000" d="M 85.5,230.5 C 86.8333,231.167 86.8333,231.167 85.5,230.5 Z"/></g>
<g><path style="opacity:0.004" fill="#000000" d="M 99.5,228.5 C 100.833,229.167 100.833,229.167 99.5,228.5 Z"/></g>
<g><path style="opacity:0.004" fill="#000000" d="M 106.5,227.5 C 105.833,226.167 105.833,226.167 106.5,227.5 Z"/></g>
<g><path style="opacity:0.004" fill="#fefffe" d="M 218.5,247.5 C 219.833,248.167 219.833,248.167 218.5,247.5 Z"/></g>
<g><path style="opacity:0.9" fill="#edeeee" d="M 24.5,270.5 C 16.1667,270.5 7.83333,270.5 -0.5,270.5C -0.5,264.833 -0.5,259.167 -0.5,253.5C 3.17294,250.997 7.17294,248.997 11.5,247.5C 14.2277,248.018 16.7277,249.018 19,250.5C 19.5,250.167 20,249.833 20.5,249.5C 19.2332,245.651 19.7332,241.984 22,238.5C 26.6966,235.988 31.0299,232.988 35,229.5C 36.395,229.78 37.5617,230.447 38.5,231.5C 41.0268,237.191 44.5268,242.191 49,246.5C 49.6667,248.167 49.6667,249.833 49,251.5C 44.8569,254.011 41.0236,256.844 37.5,260C 35.5,260.667 33.5,260.667 31.5,260C 29.2346,258.882 26.9013,258.049 24.5,257.5C 25.5723,262.026 25.5723,266.359 24.5,270.5 Z M 30.5,239.5 C 38.3507,240.37 41.0174,244.537 38.5,252C 32.35,254.925 28.6834,253.092 27.5,246.5C 27.6946,243.782 28.6946,241.449 30.5,239.5 Z M 8.5,254.5 C 17.1067,255.406 19.7733,259.739 16.5,267.5C 10.4142,269.456 6.74751,267.29 5.5,261C 5.84016,258.489 6.84016,256.322 8.5,254.5 Z"/></g>
<g><path style="opacity:0.004" fill="#fefffe" d="M 292.5,257.5 C 293.833,258.167 293.833,258.167 292.5,257.5 Z"/></g>
<g><path style="opacity:0.004" fill="#fefffe" d="M 157.5,259.5 C 158.833,260.167 158.833,260.167 157.5,259.5 Z"/></g>
<g><path style="opacity:0.004" fill="#fefffe" d="M 124.5,260.5 C 125.833,261.167 125.833,261.167 124.5,260.5 Z"/></g>
<g><path style="opacity:0.004" fill="#fefffe" d="M 233.5,264.5 C 234.833,265.167 234.833,265.167 233.5,264.5 Z"/></g>
</svg>
